<svg xmlns="http://www.w3.org/2000/svg" width="960.1" height="432.416"><defs><style>.a{fill:#ffc967}.b{fill:#444}.c{fill:#e5cf9d}.d{fill:#ccbba6}.f{fill:#fff}.g{fill:#2d2d2d}.h{fill:#777}.i{fill:#ccaaa6}.k{fill:none}.l{fill:#2fc2a7}.m{fill:#6fb05a;opacity:.6}.o{fill:#84725b}</style></defs><path class="a" d="M778.435 132.109l-23.1-35.1 15.814-38.917a2.42 2.42 0 00-2.893-3.24l-40.5 11.147-32.131-27.074a2.418 2.418 0 00-3.973 1.736l-1.928 41.964-35.677 22.216a2.418 2.418 0 00.424 4.32l39.3 14.811 3.741 15.081a4.657 4.657 0 01.81-.926 4.487 4.487 0 115.824 6.827l-4.281 3.664 4.011 16.122a2.42 2.42 0 004.243.926l26.228-32.823 41.926 3.008a2.419 2.419 0 002.162-3.742z"/><path class="b" d="M608.804 206.164a4.96 4.96 0 01.81-.733 8.26 8.26 0 012.931-1.543 4.066 4.066 0 01.733-.193l6.75-1.119 6.21-1.041-2.623-7.135-4.32-11.764-.617.231a3.222 3.222 0 01-2.2-6.056l.309-.116.309-.116a19.641 19.641 0 009.758-7.791 25.043 25.043 0 0110.067-8.948l6.75 15.428a10.4 10.4 0 01-5.94 13.962l-.81.309 3.086 8.408a7.808 7.808 0 01.347 1.273l1.89-.309 4.976-3.24a13.573 13.573 0 01-1.273-10.182 23.692 23.692 0 002.083-3.741 5.136 5.136 0 00.27-.694 25.208 25.208 0 001.7-7.483 23.9 23.9 0 10-46.94 4.744c.077.231.116.5.193.733a27.478 27.478 0 001.581 3.973 10.912 10.912 0 01.077 3.2c-.926 9.257-7.791 8.447-8.717 17.7-.694 6.788 1.35 8.91 2.237 13.229l10.375-10.992zm37.259 48.636H629.4c-4.317-.581-10.221 15.235-10.221 18.822v2.126l-32.823 26.575a7.235 7.235 0 00-2.507 7.213 2.84 2.84 0 00.154.54l23.759 78.991a4.511 4.511 0 00.849 1.581l6.248-5.516.694.81-16.508-74.749 31.9-22.139H645.1v120.029h8.37l6.171-81.961 3.471-46.4c0-.231.039-.463.039-.694v-8.794a37.025 37.025 0 00-3.857-16.469h-13.229z"/><path class="c" d="M704.648 138.628a4.473 4.473 0 00-6.326-.5 4.654 4.654 0 00-.81.926c-.039.077-.116.116-.154.193l-3.9 6.557-3.317 4.86 6.171 3.664 2.43-4.744 1.119-.926 4.281-3.664a4.519 4.519 0 00.506-6.366z"/><path class="d" d="M668.626 182.25l10.414 6.21z"/><path d="M690.149 150.661l-20.866 30.586-22.1 14.387-4.976 3.24-1.89.309 2.083-.347 2.43 14.657-24.8-10.992-6.75 1.157a4.069 4.069 0 00-.733.193 8.26 8.26 0 00-2.931 1.543c-.27.231-.54.5-.81.733l-10.297 10.952-13.847 14.734-26.153 27.886 4.937 5.246 26.96-22.178 2.584-2.121 21.908-17.974 14.541 32.052h29.892a17.172 17.172 0 00-.193-2.43l-2.623-22.178a8.336 8.336 0 005.94-9.373 8.442 8.442 0 00-1-2.816l-5.361-9.257 21.483-18.321a6.041 6.041 0 001.5-1.89l-10.414-6.171 10.414 6.171 17.318-34.1-6.248-3.7z" fill="rgba(225,119,48,.7)"/><path class="c" d="M636.922 189.502l.81-.309a10.4 10.4 0 005.94-13.962l-6.75-15.428a25.3 25.3 0 00-10.067 8.948 19.642 19.642 0 01-9.758 7.791l-.309.116-.309.116a3.221 3.221 0 002.2 6.055l.617-.231 4.32 11.764 2.623 7.135-6.21 1.041 24.8 10.992-2.43-14.657-2.083.347a7.808 7.808 0 00-.347-1.273zm3.009-12.69a3.54 3.54 0 11-6.634 2.468zm-84.007 85.664l-5.053-2.121a4.55 4.55 0 00-1.427-.347 4.485 4.485 0 10-.617 8.948l7.714.54a3.181 3.181 0 002.276-.733l4.628-3.818-4.937-5.246z"/><path class="f" d="M637.808 181.363a3.5 3.5 0 002.083-4.551l-6.634 2.43a3.577 3.577 0 004.551 2.121z"/><path class="g" d="M608.611 390.644l-1.581 4.628a1.853 1.853 0 00.347 1.774 1.817 1.817 0 002.546.154l8.794-7.753-3.124-3.548-.694-.81zm44.857 18.436h-8.37v5.786h11.725a1.778 1.778 0 00.887-3.317l-4.243-2.469z"/><path class="a" d="M63.964 173.186a5.131 5.131 0 017.251 3.433l7.675-8.023 41.463 6.673a2.424 2.424 0 002.507-3.548l-19.941-36.989 19.169-37.374a2.406 2.406 0 00-2.584-3.471l-41.346 7.52-29.62-29.776a2.424 2.424 0 00-4.127 1.389l-5.633 41.659-37.452 18.934a2.407 2.407 0 00.039 4.32l37.873 18.205 6.48 41.5a2.423 2.423 0 004.127 1.311l13.888-14.54-2.16-4.4a5.088 5.088 0 012.391-6.823z"/><path class="h" d="M157.573 408.425v6.441h-16.315a1.622 1.622 0 01-.771-3.047l6.21-3.394z"/><path class="a" d="M162.973 263.324h-6.364v-.347z"/><path class="i" d="M109.785 207.32l-33.247-20.712-3.278-2.044-.733-.463-1.234-7.135a.908.908 0 00-.077-.309 4.041 4.041 0 00-.386-1.08 5.132 5.132 0 00-9.218 4.513l2.16 4.4 1.813 3.7a3.816 3.816 0 00.964 1.234l36.834 34.366.039.039a8.756 8.756 0 008.37 2.006l10.414-2.97-7.174-18.205z"/><path class="f" d="M139.561 263.363l.116 2.314q-.116-1.157-.116-2.314z"/><path d="M209.179 225.718l-16.469 10.491-3.047-3.9-3.24 32.206a7.514 7.514 0 01-.077.964l.116-2.16h-23.451l-6.4-.309v.347h-17.012c0-.386 0-.771.039-1.2v-.039l.077-44.278-17.511 5.014-7.174-18.195 27.886-14.232a12.081 12.081 0 012.314-.926 12.576 12.576 0 012.854-.463h1.119l8.524.424.039.926a8.036 8.036 0 0016.045-.077l10.491.54c.193 0 .347.039.5.039a.656.656 0 01.27.039c.154.039.309.039.424.077a12.745 12.745 0 018.061 4.744 12.315 12.315 0 011.35 2.121z" fill="#a2e0f6"/><path class="b" d="M203.896 408.425h-10.835v.54l-14.734-81.691-8.37-46.4h-12.345v127.551h-10.838l-4.05-81a5.7 5.7 0 01-.039-.81l-2.661-53.882v-.154l-.039-.424-.309-6.441-.116-2.314v-.037h46.863l-.116 2.16-.309 6.248 6.9 52.88 10.877 82.771v.077a3.807 3.807 0 01.121.926zm-47.635-242.644a3.5 3.5 0 113.278-3.7l3.51-.231-.81-12.96a9.7 9.7 0 007.405 2.738l10.761-.656a11.738 11.738 0 01.887 3.51l.347 3.008a7.928 7.928 0 006.017-8.138 7.817 7.817 0 00-3.548-6.094 7.024 7.024 0 00-5.438-5.94 4.35 4.35 0 00-1.581-.193l-.347.039-5.67.347-.579.039a4.641 4.641 0 00-3.124 1.5 4.548 4.548 0 00-3.78-1.543 4.686 4.686 0 00-4.32 3.9 11.316 11.316 0 00-10.221 11.957l.54 8.91.386 6.4a5.84 5.84 0 006.21 5.477l.579-.039-.5-8.331z"/><path class="i" d="M157.808 190.387a8.036 8.036 0 0016.045-.077v-.887l-.656-10.414 4.667-.27a5.832 5.832 0 005.438-6.48l-1.62-14.772-.347-3.008a15.112 15.112 0 00-.887-3.51l-10.761.656a9.648 9.648 0 01-7.408-2.738l.81 12.96-3.51.231a3.5 3.5 0 10-3.278 3.7l.5 8.293.347 5.94.579 9.488.077.887zm21.291-21.638a4.29 4.29 0 11-8.563.54zm41.611 128.555a5.4 5.4 0 00-.5-1.388l-3.78-7.174-.039-1.736-.116-3.857-1.234-44.124a8.806 8.806 0 00-.193-1.7 9.211 9.211 0 00-.733-2.044l-4.936-9.64-16.469 10.491 5.477 6.981 10.684 47.328v.039l1.774 8.833a5.136 5.136 0 006.055 4.011 5.041 5.041 0 004.01-6.02z"/><path class="f" d="M175.084 173.301a4.3 4.3 0 004.011-4.551l-8.563.54a4.3 4.3 0 004.552 4.011z"/><path class="h" d="M210.993 413.246a1.63 1.63 0 01-1.62 1.62h-16.315v-6.441h10.838l6.21 3.394a1.678 1.678 0 01.887 1.427zm616.928-4.821v6.441h-16.315a1.622 1.622 0 01-.771-3.047l6.248-3.394z"/><path class="b" d="M874.286 408.425h-10.838v.54l-14.734-81.691-8.37-46.4h-12.381v127.552h-10.838l-3.973-81.036a5.971 5.971 0 01-.039-.849l-2.661-53.921v-.116l-.039-.424-.309-6.4-.118-2.394h42.658l4.166 1.041-.077 1.2-.309 6.171 6.9 52.88 10.838 82.733c0 .039 0 .039.039.077.042.42.085.729.085 1.037z"/><path class="h" d="M881.34 413.246a1.63 1.63 0 01-1.62 1.62h-16.315v-6.441h10.877l6.248 3.394a1.683 1.683 0 01.81 1.427z"/><path class="m" d="M809.947 263.324l.116 2.391a23.194 23.194 0 010-4.628v-.039l.077-1.388 6.248-5.477 36.217 9.18h-42.658z"/><path class="l" d="M855.961 274.818c-.077.231-.154.463-.27.733.116-.27.193-.502.27-.733zm.386-2.198a5.227 5.227 0 01-.077.771 5.227 5.227 0 00.077-.771zm-.232 1.62a6.542 6.542 0 00.154-.849 5.534 5.534 0 01-.154.849zm.271-1.698v.076c0-.154.039-.347.039-.5z"/><path class="m" d="M858.01 256.728l1.967-13.461-8.567-1.851z"/><path d="M856.887 264.443l-.154 1.157.039-1.2z" fill="#6fb05a"/><path class="m" d="M843.31 222.594l3.24 7.56h15.351v-.043l.039.039h14.656l6.9-5.014-15.852-27a12.138 12.138 0 00-1.466-2.006 13.152 13.152 0 00-4.2-3.124z"/><path class="b" d="M853.956 168.095a3.533 3.533 0 01-4.32 2.469l-.887 8.331a5.764 5.764 0 006.4-4.2l2.507-9.18-5.821-1.586a3.506 3.506 0 012.121 4.166z"/><path class="b" d="M827.419 154.402a12.649 12.649 0 011.582-3.24l10.414 2.854a9.861 9.861 0 007.83-1.157l-1 3.664a5.666 5.666 0 003.973 6.943l1.119.309c.077 0 .116.039.193.039s.116.039.193.039l6.017 1.659 1.466-5.323a11.683 11.683 0 00-7.482-14.117 4.631 4.631 0 00-3.433-4.706 4.73 4.73 0 00-4.011.733 4.511 4.511 0 00-2.777-2.083l-.578-.154-5.477-1.5-.347-.077a4.5 4.5 0 00-1.582-.154 6.992 6.992 0 00-6.518 4.706 7.837 7.837 0 00-4.705 5.246 7.856 7.856 0 004.2 9.18z"/><path class="d" d="M848.129 184.758l.617-5.863.887-8.331a3.506 3.506 0 002.237-6.634c-.077-.039-.116-.039-.193-.077-.077 0-.116-.039-.193-.039s-.116-.039-.193-.039l-1.118-.309a5.666 5.666 0 01-3.973-6.943l1-3.664a9.684 9.684 0 01-7.83 1.157l-10.414-2.854a12.657 12.657 0 00-1.581 3.24l-.926 2.854-4.59 14.117a5.853 5.853 0 004.011 7.444l6.519 1.774-.617 5.631zm-18.089-11.031a4.228 4.228 0 01-2.97-5.246l8.215 2.276a4.228 4.228 0 01-5.242 2.969z"/><path class="f" d="M835.288 170.757l-8.215-2.276a4.262 4.262 0 108.215 2.276z"/><path class="a" d="M865.72 187.033l-3.78 5.978-18.629 29.583 3.24 7.56h-11.339l-8.987-.039a4.948 4.948 0 00-1.466.193 5.14 5.14 0 102.854 9.874l7.714-2.237 16.084 3.471 6.6 15.312 1.89 4.436a2.4 2.4 0 01-2.816 3.278l-.231-.039-.116-.039-4.166-1.041-36.217-9.18-6.248 5.477-25.34 22.216a2.425 2.425 0 01-4.011-1.659l-2.777-41.926-15.274-9.064a8.657 8.657 0 00.5-1.041 5.149 5.149 0 00-9.334-4.2l-12.034-7.135a2.4 2.4 0 01.347-4.32l39.033-15.582 9.257-40.961a2.4 2.4 0 014.2-1l26.883 32.283 10.221-.964 16.315-1.5 15.312-1.427a2.425 2.425 0 012.315 3.693z"/><path class="d" d="M888.978 234.474l-5.477-9.334-6.9 5.014h-41.385l-8.987-.039a6.046 6.046 0 00-1.427.193 5.14 5.14 0 102.854 9.874l7.714-2.237 16.084 3.471 8.563 1.851 19.594 4.2c.039 0 .116.039.154.039a8.778 8.778 0 0010.3-6.9 9.013 9.013 0 00-1.087-6.132zm-129.017-12.806a5.126 5.126 0 00-6.055 2.314 4.311 4.311 0 00-.424.964 5.139 5.139 0 009.257 4.32 6.532 6.532 0 00.5-1.041 5.2 5.2 0 00-3.278-6.557z"/><path class="k" d="M353.509 228.573a8.239 8.239 0 01-4.706 2.893l1.234 22.293a17.448 17.448 0 01.077 2.006h.5l13.81-19.092-3.973-2.97z"/><path class="a" d="M260.44 142.755a4.473 4.473 0 016.248-1.157 5.547 5.547 0 011.08 1.041l.5.656 18.358-16.894 40.961 9.334a2.406 2.406 0 002.739-3.358l-17.511-38.262 21.561-36.063a2.4 2.4 0 00-2.353-3.626l-41.733 4.86-27.652-31.624a2.433 2.433 0 00-4.2 1.119l-8.297 41.196-38.647 16.5a2.41 2.41 0 00-.231 4.32l36.6 20.6 3.78 41.848a2.429 2.429 0 004.05 1.581l6.133-5.67-.231-.154a4.479 4.479 0 01-1.155-6.247z"/><path class="b" d="M320.455 200.996l-4.436-17.164-.231.116a3.2 3.2 0 01-2.816-5.747l.579-.27a19.769 19.769 0 008.91-8.755 25.054 25.054 0 019.1-9.913l8.292 14.657a10.421 10.421 0 01-4.513 14.5l-3.163 1.543 2.237 8.64a9.864 9.864 0 01.193 1.041l2.121-.231.81-.077a8.257 8.257 0 014.9.5c-1.581-2.816-3.394-5.323-2.777-10.452a12.876 12.876 0 01.771-3.086 21.9 21.9 0 002.43-3.51c.116-.231.231-.424.347-.656a24.233 24.233 0 002.43-7.29 23.9 23.9 0 10-47.171-7.675 23.3 23.3 0 000 7.675c.039.231.077.5.116.733a21.59 21.59 0 001.2 4.088 11.81 11.81 0 01-.231 3.2c-1.234 6.094-4.667 7.444-7.367 10.414l19.555 8.678zm25.456 63.486a4.662 4.662 0 01-1.466.231 4.544 4.544 0 01-4.474-4.551 4.456 4.456 0 013.9-4.4l-6.981-.386-16.662-.926-.27.193-13.812-37.062a.135.135 0 00-.077-.039l-17.165-10.452c.579 3.394 1.851 5.94.926 11.725-.617 3.7-2.854 5.94-5.091 8.215s-4.513 4.628-5.13 8.563a20.848 20.848 0 0017.2 23.913l15.621 2.546a21.916 21.916 0 00-2.7 6.248l-15.312 58.781 14.965.116 22.641.154 14.618.077 5.863-45.2a3.8 3.8 0 00.077-.656l.463-8.794a37.273 37.273 0 00-.887-10.337z"/><path class="o" d="M378.426 233.047a5.968 5.968 0 00-1.466-2.121l-32.088-29.622.039.039 24.531 22.641-9.025 9.758 3.973 2.97-13.812 19.092h-.5l-5.554-.039a3.747 3.747 0 00-.656.039 4.494 4.494 0 00.578 8.948 4.662 4.662 0 001.466-.231l6.21-2.083 1.119-.386a3.362 3.362 0 001.2-.694l22.563-21.522a6.157 6.157 0 001.422-6.789zm-46.401 94.265l-3.818 81.573 2.314.193h6.017l.039.039 9.951-80.8 5.979-46.132-5.863 45.243zm2.585-127.743a4.939 4.939 0 00-.193-1.041l-2.237-8.64 3.163-1.543a10.441 10.441 0 004.513-14.5l-8.293-14.659a25.314 25.314 0 00-9.1 9.913 19.583 19.583 0 01-8.91 8.755l-.579.27a3.2 3.2 0 002.816 5.747l.231-.116 4.436 17.164-6.325.656 24.068 12.5-1.5-14.811zm1.659-23.759a3.545 3.545 0 11-6.364 3.124z"/><path class="f" d="M334.648 180.515a3.567 3.567 0 001.62-4.744l-6.364 3.086a3.549 3.549 0 004.744 1.658z"/><path class="o" d="M292.028 193.128l-7.868-3.471-11.3-39.8a3.258 3.258 0 00-.5-1.041l-4.127-5.554-.5-.656a4.642 4.642 0 00-1.08-1.041 4.493 4.493 0 10-5.091 7.405l.231.154 4.976 3.394 6.326 42.427a5.942 5.942 0 002.854 4.281h.039l9.758 5.94z"/><path class="d" d="M313.82 202.77l-1.35-.579zm-7.405 14.194l-.309.617z"/><path d="M306.106 217.58l.309-.617-.309.617c.039 0 .039.039.077.039l13.808 37.066.27-.193 16.662.926 6.981.386a3.747 3.747 0 01.656-.039l5.554.039a11.782 11.782 0 00-.077-2.006l-1.234-22.294a8.445 8.445 0 004.706-2.893l6.9 5.168 8.987-9.72-24.492-22.718-.039-.039a6.814 6.814 0 00-1.35-1 9.4 9.4 0 00-1.08-.54 8.287 8.287 0 00-4.9-.5l-.81.077 1.5 14.811-24.068-12.5 6.326-.656-8.678.887-19.555-8.678-.193-.077-6.277 12.035 3.163 1.928 17.164 10.491zm7.714-14.811l-1.35-.579z" fill="rgba(225,48,102,.31)"/><path class="b" d="M336.538 409.081h-6.017l-2.314-.193v5.979h11.725a1.778 1.778 0 00.887-3.317l-4.281-2.468z"/><path class="o" d="M273.36 408.001a5.215 5.215 0 00-.154 1.119h8.37l.193.116 27.616-82.038-14.965-.117z"/><path class="b" d="M281.576 409.081h-8.37v5.786h11.725a1.778 1.778 0 00.887-3.317l-4.05-2.314z"/><path class="k" d="M519.052 110.896l.193 6.056.347-5.554zm-76.06 50.334l21.869 16.778 4.628.386v-.077l.771-7.984a9.263 9.263 0 01-1.466-.463l-8.562-3.626a4.666 4.666 0 01-2.391-6.325l2.044-4.243.5-1.041 2.431-5.049 3.51-7.29a7.89 7.89 0 012.391-14.271 7.009 7.009 0 017.1-3.78 5.273 5.273 0 011.543.347l.309.154 5.207 2.2.54.231a4.748 4.748 0 012.469 2.43 4.649 4.649 0 014.05-.193 4.7 4.7 0 012.777 5.13 11.722 11.722 0 015.554 15l-3.433 8.1-2.391 5.67a5.848 5.848 0 01-5.747 3.548l-1.234 12.921 5.168.424 20.4-16.392 5.438-4.358 2.16-33.055a2.426 2.426 0 01-3.008.154l-34.1-24.569-39.534 14.117a2.483 2.483 0 01-2.16-.27l-1.813 41.578z"/><path d="M448.893 254.724a21.916 21.916 0 01-.116-2.276z" fill="#2880b7"/><path class="i" d="M438.016 157.45l1.813-41.578.27-5.978 5.477-4.937a5.3 5.3 0 00.926-1.119 5.1 5.1 0 00-1.7-7.058 3.076 3.076 0 00-.617-.309 5.142 5.142 0 00-6.48 2.006l-4.706 7.675a3.639 3.639 0 00-.463 1.157l-12.034 52.455a8.711 8.711 0 001.967 7.753l.077.077 7.058 8.023 13.345-14.309z"/><path class="a" d="M450.359 199.028a2.5 2.5 0 01.309.347l.039-.694z"/><path class="l" d="M495.216 261.628v.347h-.039a1.068 1.068 0 00.039-.347z"/><path class="b" d="M515.349 408.425h-10.838l-.27.116-28.927-85.317a4.92 4.92 0 01-.27-1.08 8.188 8.188 0 01-.116-1.658l2.353-50.527h-12.96l-17.511 52.532-10.723 86.28v-.347h-10.838a1.445 1.445 0 01.039-.424l6.827-87.747a6.157 6.157 0 01.27-1.466l16.778-58.665-.27-5.438-.116-2.276v-.037h46.9l-.116 2.16-.309 6.6v.424c0 .116-.039.231-.039.347h.039l-5.361 58.241 25.263 86.783a6.7 6.7 0 01.195 1.499z"/><path class="i" d="M487.462 158.569v-.039a3.484 3.484 0 004.59-1.851 3.484 3.484 0 00-1.851-4.59 3.484 3.484 0 00-4.59 1.851l-.386.887-4.281 10.067a9.321 9.321 0 01-10.761 5.438l-.771 7.984v.077a8.035 8.035 0 0016.007 1.427v-.076l1.234-12.921z"/><path class="d" d="M459.847 155.637l.5-1.041z"/><path class="i" d="M476.933 155.521a3.88 3.88 0 005.091-2.044l5.438-12.882a9.725 9.725 0 01-7.907.116l-9.951-4.2a13.639 13.639 0 00-2.006 3.008l-1.311 2.7-3.51 7.29z"/><path class="b" d="M480.983 164.894l4.281-10.067.386-.887a3.5 3.5 0 014.59-1.851 3.5 3.5 0 011.851 4.59 3.5 3.5 0 01-4.59 1.851v.039l-.771 8.254a5.782 5.782 0 005.747-3.548l2.391-5.67 3.433-8.1a11.685 11.685 0 00-5.554-15 4.675 4.675 0 00-6.827-4.937 4.488 4.488 0 00-2.469-2.43l-.54-.231-5.207-2.2-.308-.154a4.464 4.464 0 00-1.543-.347 7.039 7.039 0 00-7.1 3.78 7.89 7.89 0 00-2.391 14.271l1.311-2.7a13.636 13.636 0 012.006-3.008l9.951 4.2a9.881 9.881 0 007.907-.116l-5.438 12.882a3.913 3.913 0 01-5.091 2.044l-14.155-5.978-2.43 5.053-.5 1.041-2.044 4.243a4.666 4.666 0 002.391 6.326l8.563 3.626a10.722 10.722 0 001.466.463 9.269 9.269 0 0010.684-5.439zm-15.621-10.067l6.518 2.777a3.543 3.543 0 01-6.518-2.777z"/><path class="f" d="M467.213 159.455a3.527 3.527 0 004.628-1.851l-6.518-2.777a3.592 3.592 0 001.89 4.628z"/><path class="a" d="M551.334 53.349l-40.344-11.8-13.114-39.884a2.412 2.412 0 00-4.281-.617l-23.682 34.713-42 .193a2.409 2.409 0 00-1.89 3.9l25.688 33.247-7.483 23.335a4.6 4.6 0 01.617.309 5.146 5.146 0 011.7 7.058 5.294 5.294 0 01-.926 1.119l-5.477 4.937-.27 5.978a2.465 2.465 0 002.16.27l39.573-14.155 34.1 24.569a2.426 2.426 0 003.008-.154l.617-9.45-.193-6.055-4.667-4.4a5.3 5.3 0 01-.926-1.119 5.2 5.2 0 011.813-7.058 5.257 5.257 0 013.394-.656l-.463-15.2 33.9-24.839a2.446 2.446 0 00-.854-4.241z"/><path d="M524.683 177.776l-20.172 23.952a12.973 12.973 0 01-2.121 2.006l-6.788 50.642c0 .077-.039.116-.039.193l.116-2.16h-46.9c0-.656.039-1.311.077-1.967v-.039l1.774-51.067v-.694l-.347.386-20.714-23.489 13.345-14.271 21.869 16.778 4.628.386a8.023 8.023 0 007.251 8.678 5.167 5.167 0 00.771.039 8.067 8.067 0 005.4-2.083c.077-.077.193-.154.27-.231a6.906 6.906 0 00.5-.54 5.524 5.524 0 00.424-.579 7.761 7.761 0 001.389-3.857v-.077l5.168.424 20.4-16.392z" fill="rgba(40,128,183,.7)"/><path class="i" d="M515.272 98.322a5.146 5.146 0 00-1.813 7.058 5.3 5.3 0 00.926 1.119l4.667 4.4.54.5-.347 5.554-.617 9.45-2.16 33.055-5.438 4.358 13.654 14 6.981-8.293a8.674 8.674 0 002.006-6.673l-6.287-53.458a4.33 4.33 0 00-.5-1.5l-4.551-7.753a5.154 5.154 0 00-3.664-2.468 4.856 4.856 0 00-3.397.651z"/><path class="g" d="M515.349 408.425v6.441h-16.315a1.738 1.738 0 01-1.157-.463 1.57 1.57 0 01-.463-1.157 1.639 1.639 0 01.849-1.427l5.978-3.278.27-.116zm-79.223 0v6.441h-16.315a1.738 1.738 0 01-1.157-.463 1.57 1.57 0 01-.463-1.157 1.639 1.639 0 01.849-1.427l6.248-3.394z"/><path d="M945.752 414.866H960.1v2.584h-14.348zm-576.93 0h552.94v2.584h-552.94zm-311.261 0H361.57v2.584H57.561zm-18.282 0h7.907v2.584h-7.907zm348.288 7.483h150.655v2.584H387.567zm-154.705 0h113.126v2.584H232.862zm-110.426 0h87.631v2.584h-87.631zm665.835 0h119.876v2.584H788.271zm-165.234 0h75.404v2.584h-75.404zm-42.042 0h29.66v2.584h-29.66zm-439.852 7.482h46.515v2.584h-46.515zm498.71 0h46.515v2.584h-46.515zm172.215 0h46.515v2.584h-46.515zm-562.968 0h46.515v2.584H249.1zm213.755 0h59.244v2.584h-59.244zm-37.297 0h21.368v2.584h-21.368z" fill="#ddd"/></svg>